<svg width="208" height="34" viewBox="0 0 208 34" fill="none" xmlns="http://www.w3.org/2000/svg">
<path d="M76.6586 20.7808C76.6586 23.4157 74.973 25.4853 70.5566 25.4853H62.6038V9.31827H69.6071C74.285 9.31827 75.7571 11.1691 75.7571 13.756C75.7391 14.3495 75.5941 14.9323 75.3319 15.4651C75.0697 15.9978 74.6963 16.4681 74.237 16.8444C74.9811 17.1921 75.607 17.7503 76.0374 18.4499C76.4677 19.1495 76.6837 19.9598 76.6586 20.7808V20.7808ZM72.0554 14.2788C72.0554 13.212 71.3407 12.6786 69.8472 12.6786H66.4975V16.0496H69.8472C71.5327 16.0336 72.0554 15.5376 72.0554 14.2788ZM70.1085 19.0046H66.4975V22.1196H70.1085C71.6731 22.1196 72.4555 21.5969 72.4555 20.5515C72.4555 19.3833 71.65 19.0046 70.1085 19.0046V19.0046Z" fill="#033974"/>
<path d="M89.9985 22.9677H82.2164L81.1497 25.4853H77.0212L83.9553 9.33963H88.3024L95.2364 25.4853H91.0813L89.9985 22.9677ZM88.6491 19.7673L86.1315 13.7401L83.5659 19.7673H88.6491Z" fill="#033974"/>
<path d="M113.617 25.4853H109.697L101.53 15.6069V25.4853H97.6154V9.31827H101.53L109.697 19.1699V9.31827H113.617V25.4853Z" fill="#033974"/>
<path d="M132.499 21.5862C131.719 22.8863 130.612 23.9589 129.287 24.6965C127.962 25.4341 126.467 25.8109 124.951 25.7893C119.89 25.7893 116.215 22.0876 116.215 17.3138C116.215 12.828 119.89 9.07828 124.951 9.07828C128.392 9.07828 131.096 10.6784 132.547 13.1107L129.245 15.0362C128.713 14.1274 127.9 13.4158 126.928 13.0082C125.957 12.6007 124.879 12.5191 123.858 12.7757C122.836 13.0324 121.925 13.6133 121.262 14.4316C120.598 15.2498 120.218 16.2611 120.178 17.3138C120.173 17.9456 120.293 18.5721 120.533 19.1567C120.772 19.7414 121.126 20.2726 121.573 20.7193C122.019 21.1661 122.551 21.5195 123.135 21.7589C123.72 21.9984 124.346 22.1192 124.978 22.1142C125.846 22.1409 126.705 21.9262 127.458 21.4939C128.212 21.0617 128.83 20.4289 129.245 19.666L132.499 21.5862Z" fill="#033974"/>
<path d="M150.255 17.4098C150.251 19.0567 149.759 20.6654 148.841 22.0327C147.923 23.4 146.62 24.4645 145.097 25.0918C143.575 25.7192 141.9 25.8811 140.285 25.5572C138.671 25.2334 137.188 24.4382 136.025 23.2722C134.862 22.1061 134.071 20.6216 133.751 19.006C133.431 17.3904 133.597 15.7163 134.229 14.1952C134.86 12.6741 135.928 11.3741 137.297 10.4595C138.667 9.54499 140.277 9.05692 141.924 9.05692C144.135 9.06537 146.252 9.94882 147.813 11.5141C149.375 13.0793 150.253 15.199 150.255 17.4098V17.4098ZM137.15 17.4098C137.144 18.349 137.416 19.269 137.932 20.0537C138.448 20.8383 139.186 21.4524 140.051 21.8184C140.916 22.1844 141.87 22.2858 142.792 22.1099C143.715 21.9341 144.565 21.4887 145.235 20.8302C145.904 20.1716 146.364 19.3294 146.555 18.4098C146.747 17.4903 146.661 16.5346 146.31 15.6636C145.958 14.7925 145.357 14.0451 144.581 13.5158C143.805 12.9864 142.89 12.6988 141.95 12.6893C141.325 12.6836 140.705 12.8013 140.125 13.0356C139.545 13.2698 139.018 13.6161 138.572 14.0545C138.126 14.4929 137.771 15.0149 137.527 15.5906C137.283 16.1663 137.155 16.7845 137.15 17.4098Z" fill="#033974"/>
<path d="M172.716 25.4853H168.801V17.2444L164.929 25.4853H160.587L156.715 17.2444V25.4853H152.821V9.31827H157.141L162.769 21.1648L168.375 9.31827H172.716V25.4853Z" fill="#033974"/>
<path d="M188.67 9.31827V12.9293H180.195V15.7029H187.273V19.074H180.195V21.8529H188.67V25.4639H176.301V9.31827H188.67Z" fill="#033974"/>
<path d="M191.166 22.9197L196.58 17.5858L190.878 11.8358L193.657 9.06226L199.354 14.8069L205.221 9.06226L208 11.8146L202.085 17.6284L207.493 22.989L204.666 25.7946L199.332 20.3807L193.945 25.7466L191.166 22.9197Z" fill="#033974"/>
<path d="M8.28355 16.4817C8.35822 17.1538 8.36887 17.3244 8.39554 17.4898C8.64623 19.3193 8.36356 20.7754 6.18734 21.2235C5.52902 21.4511 4.93085 21.8249 4.43781 22.3169C3.06167 23.4477 3.02434 24.5039 4.54449 25.4106C6.11559 26.4043 7.80548 27.1964 9.57434 27.7681C16.7751 29.9017 24.1572 30.2377 31.6086 29.699C36.1691 29.3683 40.6762 28.6749 44.9433 26.9361C46.0547 26.4536 47.1012 25.8335 48.0583 25.0905C49.0237 24.3705 49.0451 23.4904 48.1116 22.6903C47.2214 21.9362 46.2282 21.313 45.162 20.8394C44.1272 20.4021 43.6418 19.8633 43.8125 18.7059C43.8589 18.0435 43.8589 17.3787 43.8125 16.7164C46.8688 17.6818 49.6798 18.7379 51.472 21.4262C52.9281 23.6184 52.128 26.4134 49.6051 28.1949C46.3728 30.4778 42.6444 31.4592 38.8307 32.1526C29.5917 33.865 20.1012 33.6836 10.9345 31.6193C7.97417 30.9525 5.06719 30.0191 2.59227 28.1362C-0.842746 25.5546 -0.896086 21.8795 2.62427 19.4313C4.27244 18.3218 6.23534 17.5485 8.28355 16.4817Z" fill="#CF001C"/>
<path d="M32.0672 0H40.4201V1.31745C40.4201 9.2436 40.4201 17.1751 40.4201 25.1012C40.4201 26.0346 40.2387 26.488 39.2093 26.6213C36.8571 26.9307 34.5208 27.3735 32.0459 27.7842L32.0672 0Z" fill="#033974"/>
<path d="M30.2218 27.8535H21.9756V5.78725H30.2218V27.8535Z" fill="#033974"/>
<path d="M20.1514 27.8002C17.4418 27.3468 14.8495 26.9254 12.2733 26.4453C12.0653 26.408 11.7879 25.9493 11.7879 25.6879C11.7559 21.0154 11.7879 16.3376 11.7879 11.5531H20.1727L20.1514 27.8002Z" fill="#033974"/>
</svg>
