<svg width="208" height="34" viewBox="0 0 208 34" fill="none" xmlns="http://www.w3.org/2000/svg">
<path d="M76.2126 21.9C76.2126 24.7868 74.499 26.9924 70.009 26.9924H61.9236V9.52673H69.0437C73.7994 9.52673 75.2961 11.5302 75.2961 14.3305C75.2778 14.9729 75.1304 15.6038 74.8638 16.1805C74.5972 16.7571 74.2176 17.2662 73.7506 17.6735C74.502 18.0476 75.1348 18.6464 75.572 19.3968C76.0091 20.1473 76.2317 21.0171 76.2126 21.9ZM71.5328 14.8617C71.5328 13.7069 70.8061 13.1296 69.2877 13.1296H65.8822V16.7786H69.2877C71.0013 16.7613 71.5328 16.2243 71.5328 14.8617ZM69.5534 19.9772H65.8822V23.3838H69.5534C71.1441 23.3838 71.9395 22.818 71.9395 21.6863C71.9395 20.3872 71.1206 19.9772 69.5534 19.9772Z" fill="white"/>
<path d="M90.2448 24.269H82.7829L81.7601 26.9924H77.8015L84.4502 9.52673H88.6184L95.2672 26.9924H91.2831L90.2448 24.269ZM88.9509 20.807L86.5369 14.2869L84.0769 20.807H88.9509Z" fill="white"/>
<path d="M114.321 26.9924H110.042L101.128 16.2994V26.9924H96.855V9.52673H101.128L110.042 20.1909V9.52673H114.321V26.9924Z" fill="white"/>
<path d="M131.74 22.5988C130.981 23.9576 129.905 25.0785 128.617 25.8494C127.329 26.6202 125.876 27.0141 124.402 26.9915C119.481 26.9915 115.908 23.1228 115.908 18.1337C115.908 13.4456 119.481 9.52673 124.402 9.52673C127.747 9.52673 130.376 11.1991 131.786 13.741L128.576 15.7534C128.059 14.8036 127.268 14.0599 126.324 13.634C125.379 13.208 124.332 13.1227 123.339 13.3909C122.346 13.6591 121.46 14.2664 120.815 15.1215C120.17 15.9766 119.8 17.0335 119.761 18.1337C119.756 18.794 119.874 19.4487 120.107 20.0597C120.339 20.6707 120.683 21.2259 121.117 21.6928C121.552 22.1597 122.068 22.529 122.636 22.7793C123.205 23.0296 123.814 23.1559 124.428 23.1507C125.272 23.1785 126.107 22.9541 126.839 22.5024C127.571 22.0507 128.173 21.3894 128.576 20.592L131.74 22.5988Z" fill="white"/>
<path d="M150.84 18.2819C150.835 20.0081 150.319 21.6944 149.357 23.1275C148.395 24.5607 147.029 25.6765 145.433 26.334C143.837 26.9916 142.082 27.1613 140.389 26.8218C138.697 26.4824 137.143 25.6488 135.924 24.4267C134.705 23.2045 133.875 21.6484 133.54 19.9551C133.205 18.2617 133.379 16.5069 134.041 14.9125C134.703 13.3181 135.822 11.9556 137.257 10.997C138.693 10.0384 140.381 9.52674 142.107 9.52673C144.424 9.5356 146.644 10.4616 148.28 12.1022C149.916 13.7429 150.837 15.9647 150.84 18.2819ZM137.103 18.2819C137.096 19.2664 137.382 20.2308 137.923 21.0532C138.464 21.8757 139.237 22.5193 140.143 22.9029C141.05 23.2865 142.05 23.3928 143.017 23.2085C143.984 23.0241 144.875 22.5573 145.577 21.8671C146.279 21.1768 146.761 20.294 146.961 19.3301C147.162 18.3663 147.072 17.3646 146.704 16.4516C146.336 15.5386 145.705 14.7552 144.892 14.2003C144.079 13.6455 143.119 13.3441 142.135 13.3341C141.479 13.3282 140.829 13.4516 140.222 13.6971C139.614 13.9426 139.061 14.3055 138.593 14.765C138.126 15.2245 137.754 15.7717 137.498 16.3752C137.242 16.9786 137.108 17.6265 137.103 18.2819Z" fill="white"/>
<path d="M173.069 26.9924H169.007V18.0719L164.989 26.9924H160.485L156.467 18.0719V26.9924H152.427V9.52673H156.91L162.748 22.3503L168.564 9.52673H173.069V26.9924Z" fill="white"/>
<path d="M188.947 9.52673V13.433H180.243V16.4333H187.511V20.08H180.243V23.0861H188.947V26.9924H176.244V9.52673H188.947Z" fill="white"/>
<path d="M190.828 23.9914L196.351 18.4238L190.534 12.4219L193.369 9.52673L199.18 15.5231L205.165 9.52673L208 12.3996L201.966 18.4684L207.483 24.0638L204.599 26.9924L199.158 21.3413L193.663 26.9423L190.828 23.9914Z" fill="white"/>
<path d="M8.31546 17.4656C8.39043 18.1002 8.40111 18.2613 8.42789 18.4225C8.67954 20.1448 8.39578 21.5196 6.21118 21.9476C5.55281 22.1552 4.95254 22.4994 4.45491 22.9548C3.07346 24.0225 3.03599 25.0195 4.562 25.8757C6.14011 26.8135 7.83623 27.563 9.61123 28.1066C16.8397 30.121 24.2502 30.4332 31.7304 29.9246C36.3084 29.6124 40.8329 28.9577 45.1165 27.316C46.2332 26.8624 47.284 26.2769 48.2435 25.5735C49.2126 24.8937 49.234 24.0627 48.297 23.3073C47.4047 22.595 46.4074 22.0081 45.336 21.5649C44.2972 21.1469 43.81 20.6383 43.9813 19.5505C44.0279 18.9252 44.0279 18.2975 43.9813 17.6721C47.0494 18.5836 49.8712 19.5807 51.6703 22.1189C53.132 24.1886 52.3289 26.8275 49.7962 28.5095C46.5515 30.6649 42.8087 31.5915 38.9803 32.2462C29.7057 33.8629 20.1787 33.6916 10.9766 31.7426C8.00489 31.1131 5.08672 30.2318 2.60226 28.4541C-0.845994 26.0167 -0.899539 22.5469 2.63439 20.2354C4.28891 19.203 6.25936 18.4728 8.31546 17.4656Z" fill="white"/>
<path d="M31.776 0H39.6947V1.38655C39.6947 9.53038 39.6947 17.6797 39.6947 25.8235C39.6947 26.7826 39.5227 27.2484 38.5468 27.3854C36.3168 27.7033 34.102 28.1582 31.7557 28.5802L31.776 0Z" fill="white"/>
<path d="M30.1679 28.5801H22.229V6.35114H30.1679V28.5801Z" fill="white"/>
<path d="M20.617 28.5801C17.5436 28.1371 14.6033 27.7253 11.6811 27.2614C11.4452 27.2197 11.1306 26.7713 11.1306 26.5159C11.0943 21.9496 11.1306 17.3781 11.1306 12.7023H20.6412L20.617 28.5801Z" fill="white"/>
</svg>
